<svg id="visual" viewBox="0 0 900 600" width="900" height="600" xmlns="http://www.w3.org/2000/svg" xmlns:xlink="http://www.w3.org/1999/xlink" version="1.1"><rect x="0" y="0" width="900" height="600" fill="#001220"></rect><defs><linearGradient id="grad1_0" x1="33.3%" y1="0%" x2="100%" y2="100%"><stop offset="20%" stop-color="#001220" stop-opacity="1"></stop><stop offset="80%" stop-color="#001220" stop-opacity="1"></stop></linearGradient></defs><defs><linearGradient id="grad2_0" x1="0%" y1="0%" x2="66.7%" y2="100%"><stop offset="20%" stop-color="#001220" stop-opacity="1"></stop><stop offset="80%" stop-color="#001220" stop-opacity="1"></stop></linearGradient></defs><g transform="translate(900, 0)"><path d="M0 486.7C-63.5 468.8 -127 450.8 -172.6 416.7C-218.2 382.5 -245.9 332.2 -294.9 294.9C-343.9 257.5 -414.2 233.2 -449.7 186.3C-485.2 139.3 -486 69.6 -486.7 0L0 0Z" fill="#6600FF"></path></g><g transform="translate(0, 600)"><path d="M0 -486.7C54.7 -453.1 109.5 -419.4 163.4 -394.5C217.3 -369.6 270.4 -353.5 321.7 -321.7C373 -290 422.5 -242.5 449.7 -186.3C476.9 -130 481.8 -65 486.7 0L0 0Z" fill="#6600FF"></path></g></svg>